<?xml version="1.0" encoding="UTF-8"?>
<svg width="50" height="50" fill="none" stroke="#ffffff" stroke-linecap="round" stroke-linejoin="round" stroke-width="2" version="1.1" viewBox="0 0 24 24" xmlns="http://www.w3.org/2000/svg" xmlns:cc="http://creativecommons.org/ns#" xmlns:dc="http://purl.org/dc/elements/1.1/" xmlns:rdf="http://www.w3.org/1999/02/22-rdf-syntax-ns#" xmlns:xlink="http://www.w3.org/1999/xlink">
 <metadata>
  <rdf:RDF>
   <cc:Work rdf:about="">
    <dc:format>image/svg+xml</dc:format>
    <dc:type rdf:resource="http://purl.org/dc/dcmitype/StillImage"/>
    <dc:title/>
   </cc:Work>
  </rdf:RDF>
 </metadata>
 <defs>
  <linearGradient id="linearGradient2209" x1="4.7891" x2="45.219" y1="20.129" y2="25.234" gradientTransform="matrix(.41546 0 0 .48 1.6136 -.21794)" gradientUnits="userSpaceOnUse">
   <stop stop-color="#ffa95f" offset="0"/>
   <stop stop-color="#f70" offset="1"/>
  </linearGradient>
  <linearGradient id="linearGradient2217" x1="2.295" x2="21.712" y1="12.112" y2="19.186" gradientTransform="matrix(.86553 0 0 1.0633 1.6136 -1.4313)" gradientUnits="userSpaceOnUse">
   <stop stop-color="#ffcb8d" offset="0"/>
   <stop stop-color="#fa8b00" offset="1"/>
  </linearGradient>
  <linearGradient id="linearGradient2225" x1="7.6716" x2="8.5256" y1="5.2603" y2="9.66" gradientTransform="translate(-2.5034e-7 -.21794)" gradientUnits="userSpaceOnUse">
   <stop stop-color="#ff6d08" offset="0"/>
   <stop stop-color="#f56400" offset="1"/>
  </linearGradient>
  <linearGradient id="linearGradient2227" x1="15.476" x2="16.345" y1="5.2537" y2="9.6599" gradientTransform="translate(-2.5034e-7 -.21794)" gradientUnits="userSpaceOnUse">
   <stop stop-color="#ff7a1e" offset="0"/>
   <stop stop-color="#f56400" offset="1"/>
  </linearGradient>
  <linearGradient id="linearGradient2241" x1="8.5256" x2="15.476" y1="5.2537" y2="6.1228" gradientTransform="translate(-2.5034e-7 -.21794)" gradientUnits="userSpaceOnUse">
   <stop stop-color="#d05500" offset="0"/>
   <stop stop-color="#bc4d00" offset="1"/>
  </linearGradient>
  <filter id="filter901" x="-.09877" y="-.17426" width="1.1975" height="1.3485" color-interpolation-filters="sRGB">
   <feGaussianBlur stdDeviation="0.69139121"/>
  </filter>
  <filter id="filter917" x="-1.9093" y="-.37659" width="4.8187" height="1.7532" color-interpolation-filters="sRGB">
   <feGaussianBlur stdDeviation="0.69139121"/>
  </filter>
  <filter id="filter921" x="-.2387" y="-1.9096" width="1.4774" height="4.8192" color-interpolation-filters="sRGB">
   <feGaussianBlur stdDeviation="0.69139121"/>
  </filter>
  <filter id="filter925" x="-1.9093" y="-.37643" width="4.8187" height="1.7529" color-interpolation-filters="sRGB">
   <feGaussianBlur stdDeviation="0.69139121"/>
  </filter>
 </defs>
 <g display="none">
  <circle cx="12" cy="12" r="12" fill="#ff7f2a" stroke="none"/>
  <path d="m9.5064 6.6483c-0.35258 0.16752-0.68695 0.37351-1.0314 0.55774-0.53693 0.3019-1.0812 0.5929-1.613 0.90265-0.1847 0.11236-0.17158 0.34684-0.16556 0.53519 0.00178 0.88099-0.00356 1.7626 0.00267 2.6432 0.00284 0.20245 0.18407 0.32283 0.35004 0.39721 0.80236 0.43389 1.5974 0.8819 2.4077 1.3007 0.19022 0.08718 0.37782-0.02951 0.54034-0.12117 0.79166-0.43129 1.58-0.86982 2.3651-1.3123 0.17413-0.10013 0.1919-0.31482 0.1789-0.49493 8.36e-4 -0.89305 0.0089-1.7867 0.0053-2.6794-0.002291-0.20308-0.18401-0.32408-0.35061-0.3983-0.81733-0.44014-1.6268-0.89596-2.4509-1.323-0.081267-0.023719-0.15588-0.02601-0.23867-0.0076943z" fill="#333" stroke="none"/>
  <path d="m13.939 4.9588c1.0243 0.24085 1.8896 0.46009 2.8184 1.422 0.92882 0.96187 1.1563 2.4436 1.2134 3.4836 0.05897 1.0739 0.70398 3.649 1.5806 4.5001l0.64483 0.58801 11.292 10.627-3.2307 3.5393-11.187-10.407c-0.73139-0.71847-2.4575-1.1282-3.7666-1.0666-1.0509 0.04945-2.1105 0.19737-3.1126-0.07267-0.58138-0.15668-1.1674-0.43479-1.5825-0.87097-1.3271-1.3945-3.3779-4.7055-3.3779-4.7055s-0.088671-0.45826 0.028579-0.63458c0.11284-0.16967 0.55254-0.26153 0.55254-0.26153l4.8203 2.7141s1.7229-1.3502 2.1982-2.2976c0.46024-0.91739 0.51088-3.0364 0.51088-3.0364l-4.7357-2.5235s-0.29435-0.31559-0.27883-0.50819c0.01568-0.1946 0.36032-0.46176 0.36032-0.46176s3.5475-0.42904 5.2516-0.028359z" display="inline" fill="#ccc" opacity=".998" stroke="#646464" stroke-width=".14571"/>
 </g>
 <path d="m4.9486 9.4421c-0.74729 0-1.3486 0.69474-1.3486 1.5581v6.4059c0 0.86338 0.60132 1.5581 1.3486 1.5581h14.103c0.74729 0 1.3486-0.69474 1.3486-1.5581v-6.4059c0-0.86338-0.60132-1.5581-1.3486-1.5581z" fill="#000" filter="url(#filter901)" opacity=".998" stroke="none" style="mix-blend-mode:normal"/>
 <g stroke="none">
  <rect x="8.5247" y="5.0358" width="6.9516" height=".86894" rx="0" ry="0" fill="#000" filter="url(#filter921)" opacity=".998"/>
  <rect x="8.5247" y="5.0358" width="6.9516" height=".86894" rx="0" ry="0" fill="url(#linearGradient2241)" opacity=".998"/>
  <path d="m15.476 5.0358v4.4063h0.86906v-3.5372z" fill="#000" filter="url(#filter917)" opacity=".998"/>
  <path d="m8.5256 5.0358-0.86906 0.86906v3.5391h0.86906v-3.5391z" fill="#000" filter="url(#filter925)" opacity=".998"/>
 </g>
 <g stroke="none">
  <path d="m20.4 11.447h-16.8v5.8602c0 0.918 0.60132 1.6567 1.3486 1.6567h14.103c0.74729 0 1.3486-0.73869 1.3486-1.6567z" fill="url(#linearGradient2217)" opacity=".998"/>
  <path d="m4.9486 9.4421c-0.74729 0-1.3486 0.69474-1.3486 1.5581v0.89438h16.8v-0.89438c0-0.86338-0.60132-1.5581-1.3486-1.5581z" fill="url(#linearGradient2209)" opacity=".998"/>
 </g>
 <g stroke="none">
  <path d="m15.476 5.0358v4.4063h0.86906v-3.5372z" fill="url(#linearGradient2227)" opacity=".998"/>
  <path d="m8.5256 5.0358-0.86906 0.86906v3.5391h0.86906v-3.5391z" fill="url(#linearGradient2225)" opacity=".998"/>
 </g>
 <g display="none">
  <text x="9.6985998" y="18.674217" display="inline" fill="#ffffff" font-family="'Segoe UI'" font-size="8.32px" font-weight="600" letter-spacing="0px" stroke="none" stroke-width=".96" word-spacing="0px" style="line-height:1.25" xml:space="preserve"><tspan x="9.6985998" y="18.674217" fill="#ffffff" font-family="'Segoe UI'" font-size="8.32px" font-weight="600" stroke-width=".96">T</tspan></text>
 </g>
</svg>
