<?xml version="1.0" encoding="UTF-8" standalone="no"?>
<svg
   xmlns:dc="http://purl.org/dc/elements/1.1/"
   xmlns:cc="http://creativecommons.org/ns#"
   xmlns:rdf="http://www.w3.org/1999/02/22-rdf-syntax-ns#"
   xmlns:svg="http://www.w3.org/2000/svg"
   xmlns="http://www.w3.org/2000/svg"
   xmlns:sodipodi="http://sodipodi.sourceforge.net/DTD/sodipodi-0.dtd"
   xmlns:inkscape="http://www.inkscape.org/namespaces/inkscape"
   width="50"
   height="50"
   viewBox="0 0 24 24"
   fill="none"
   stroke="#ffffff"
   stroke-width="2"
   stroke-linecap="round"
   stroke-linejoin="round"
   version="1.1"
   id="svg4"
   sodipodi:docname="ManifestGenelator.svg"
   inkscape:version="0.92.4 (5da689c313, 2019-01-14)">
  <metadata
     id="metadata10">
    <rdf:RDF>
      <cc:Work
         rdf:about="">
        <dc:format>image/svg+xml</dc:format>
        <dc:type
           rdf:resource="http://purl.org/dc/dcmitype/StillImage" />
        <dc:title></dc:title>
      </cc:Work>
    </rdf:RDF>
  </metadata>
  <defs
     id="defs8" />
  <sodipodi:namedview
     pagecolor="#ffffff"
     bordercolor="#666666"
     borderopacity="1"
     objecttolerance="10"
     gridtolerance="10"
     guidetolerance="10"
     inkscape:pageopacity="0"
     inkscape:pageshadow="2"
     inkscape:window-width="1920"
     inkscape:window-height="1017"
     id="namedview6"
     showgrid="false"
     showguides="false"
     inkscape:zoom="11.313709"
     inkscape:cx="21.964276"
     inkscape:cy="26.442816"
     inkscape:window-x="-8"
     inkscape:window-y="-8"
     inkscape:window-maximized="1"
     inkscape:current-layer="layer3" />
  <g
     inkscape:groupmode="layer"
     id="layer2"
     inkscape:label="Layer 2"
     style="display:inline">
    <path
       style="color:#000000;font-style:normal;font-variant:normal;font-weight:normal;font-stretch:normal;font-size:medium;line-height:normal;font-family:sans-serif;font-variant-ligatures:normal;font-variant-position:normal;font-variant-caps:normal;font-variant-numeric:normal;font-variant-alternates:normal;font-feature-settings:normal;text-indent:0;text-align:start;text-decoration:none;text-decoration-line:none;text-decoration-style:solid;text-decoration-color:#000000;letter-spacing:normal;word-spacing:normal;text-transform:none;writing-mode:lr-tb;direction:ltr;text-orientation:mixed;dominant-baseline:auto;baseline-shift:baseline;text-anchor:start;white-space:normal;shape-padding:0;clip-rule:nonzero;display:inline;overflow:visible;visibility:visible;opacity:1;isolation:auto;mix-blend-mode:normal;color-interpolation:sRGB;color-interpolation-filters:linearRGB;solid-color:#000000;solid-opacity:1;vector-effect:none;fill:#71c837;fill-opacity:1;fill-rule:nonzero;stroke:none;stroke-width:1.65169489;stroke-linecap:butt;stroke-linejoin:miter;stroke-miterlimit:4;stroke-dasharray:none;stroke-dashoffset:0;stroke-opacity:1;color-rendering:auto;image-rendering:auto;shape-rendering:auto;text-rendering:auto;enable-background:accumulate"
       d="m 11.003747,4.0930987 a 0.82593,0.82593 0 0 0 -0.400391,0.103515 l -7.4316402,4.128906 a 0.82593,0.82593 0 0 0 -0.425782,0.7226555 v 8.3398458 a 0.82593,0.82593 0 0 0 0.431641,0.726562 l 7.4316402,4.046874 a 0.82593,0.82593 0 0 0 0.796876,-0.0039 l 7.43164,-4.128905 a 0.82593,0.82593 0 0 0 0.425781,-0.722658 V 8.9641912 a 0.82593,0.82593 0 0 0 -0.43164,-0.7246085 l -7.431641,-4.046875 a 0.82593,0.82593 0 0 0 -0.396484,-0.09961 z m 0.0039,1.767577 6.603516,3.5957035 V 16.819661 L 10.999835,20.493489 4.3982718,16.897786 V 9.5345042 Z"
       id="path2-4"
       inkscape:connector-curvature="0" />
    <path
       style="fill:#1c2224;stroke:none;stroke-width:0.06"
       d="M 10.858014,5.4100707 C 8.6281142,6.6340737 6.4095734,7.8823447 4.1834829,9.1146602 3.881421,9.2879772 3.9357308,9.6598492 3.936686,9.9541912 c 0.00402,2.3244548 -0.00803,4.6505408 0.00602,6.9739788 0.027361,0.392662 0.4687722,0.485677 0.7446118,0.66489 2.0373422,1.106619 4.0670788,2.227697 6.1122162,3.319686 0.368015,0.137909 0.671563,-0.183513 0.985458,-0.320187 2.031956,-1.123524 4.065843,-2.246933 6.087997,-3.386026 0.328426,-0.214036 0.197984,-0.643593 0.222746,-0.970914 -0.0087,-2.268647 -0.0014,-4.538959 -0.02014,-6.8065658 -0.02817,-0.392243 -0.469141,-0.484797 -0.744937,-0.6638 -2.04247,-1.1076075 -4.078677,-2.2301285 -6.12505,-3.3284395 -0.11409,-0.05373 -0.226171,-0.04854 -0.347598,-0.02675 z"
       id="path4728"
       inkscape:connector-curvature="0" />
  </g>
  <g
     inkscape:groupmode="layer"
     id="layer3"
     inkscape:label="Layer 3"
     style="display:inline">
    <g
       style="fill:none;stroke:#ffffff;stroke-width:2;stroke-linecap:round;stroke-linejoin:round"
       id="g23"
       transform="matrix(0.55508381,0,0,0.55508381,9.2823298,-0.3320819)">
      <path
         style="color:#000000;font-style:normal;font-variant:normal;font-weight:normal;font-stretch:normal;font-size:medium;line-height:normal;font-family:sans-serif;font-variant-ligatures:normal;font-variant-position:normal;font-variant-caps:normal;font-variant-numeric:normal;font-variant-alternates:normal;font-feature-settings:normal;text-indent:0;text-align:start;text-decoration:none;text-decoration-line:none;text-decoration-style:solid;text-decoration-color:#000000;letter-spacing:normal;word-spacing:normal;text-transform:none;writing-mode:lr-tb;direction:ltr;text-orientation:mixed;dominant-baseline:auto;baseline-shift:baseline;text-anchor:start;white-space:normal;shape-padding:0;clip-rule:nonzero;display:inline;overflow:visible;visibility:visible;opacity:1;isolation:auto;mix-blend-mode:normal;color-interpolation:sRGB;color-interpolation-filters:linearRGB;solid-color:#000000;solid-opacity:1;vector-effect:none;fill:#ff7f2a;fill-opacity:1;fill-rule:nonzero;stroke:none;stroke-width:2;stroke-linecap:butt;stroke-linejoin:miter;stroke-miterlimit:4;stroke-dasharray:none;stroke-dashoffset:0;stroke-opacity:1;color-rendering:auto;image-rendering:auto;shape-rendering:auto;text-rendering:auto;enable-background:accumulate"
         d="m 15.552008,3.7294687 c -0.259774,0.0041 -0.50774,0.109212 -0.691406,0.292969 L 1.8606017,17.022438 C 1.6730654,17.209949 1.567684,17.46427 1.5676329,17.729469 v 5 c 5.52e-5,0.552261 0.4477381,0.999944 1,1 h 5 c 0.2651989,-5.2e-5 0.5195195,-0.105433 0.7070312,-0.292969 l 12.9999999,-13 c 0.390368,-0.39053 0.390368,-1.0235333 0,-1.4140623 l -5,-5 c -0.191323,-0.191412 -0.452053,-0.297114 -0.722656,-0.292969 z m 0.01563,2.414062 3.585938,3.585938 L 7.1535704,21.729469 H 3.5676329 v -3.585938 z"
         id="polygon12"
         inkscape:connector-curvature="0"
         sodipodi:nodetypes="cccccccccccccccccc" />
    </g>
    <path
       style="fill:#ff7f2a;stroke:none;stroke-width:0.03"
       d="m 17.81157,2.6179497 c -0.232011,0.07075 -0.365125,0.291639 -0.540241,0.444232 -2.116491,2.118292 -4.236855,4.23318 -6.350925,6.3535975 -0.183551,0.188287 -0.120449,0.465968 -0.131442,0.7025208 0.0039,0.55226 -0.0077,1.105521 0.0058,1.657155 0.01446,0.257926 0.266348,0.455565 0.519205,0.435375 0.652344,-0.0026 1.305353,0.0051 1.95728,-0.0038 0.261338,-0.01025 0.408517,-0.255078 0.585424,-0.412506 2.133144,-2.1349818 4.270161,-4.2665593 6.400884,-6.4036673 0.184027,-0.188145 0.164804,-0.515136 -0.03037,-0.688207 -0.661727,-0.658039 -1.31663,-1.323824 -1.982611,-1.976998 -0.116137,-0.106503 -0.280951,-0.140363 -0.432999,-0.107702 z"
       id="path4726"
       inkscape:connector-curvature="0" />
  </g>
</svg>
